# xmcd
#
# Track frame offsets: 
#        150
#        16637
#        27825
#        42067
#        56212
#        75682
#        91645
#        116642
#        136100
#        154022
#        166867
#
# Disc length: 2560 seconds
#
# Revision: 6
# Processed by: cddbd v1.5.2PL0 Copyright (c) Steve Scherf et al.
# Submitted via: ExactAudioCopyFreeDBPlugin 1.0
#
DISCID=7309fe0b
DTITLE=Harris, Emmylou (USA-93-Cowgirl's Prayers-cty) - Cowgirl's Pray
DTITLE=er
DYEAR=1993
DGENRE=Country
TTITLE0=A Ways To Go
TTITLE1=The Light
TTITLE2=High Powered Love
TTITLE3=You Don't Know Me
TTITLE4=Prayer In Open D
TTITLE5=Crescent City
TTITLE6=Lovin' You Again
TTITLE7=Jerusalem Tomorrow
TTITLE8=Thanks To You
TTITLE9=I Hear A Call
TTITLE10=Ballad Of A Runaway Horse
EXTD=
EXTT0=
EXTT1=
EXTT2=
EXTT3=
EXTT4=
EXTT5=
EXTT6=
EXTT7=
EXTT8=
EXTT9=
EXTT10=
PLAYORDER=
